<?xml version="1.0" encoding="utf-8"?>
<!-- Generator: Adobe Illustrator 23.1.0, SVG Export Plug-In . SVG Version: 6.00 Build 0)  -->
<svg version="1.1" id="Layer_1" xmlns="http://www.w3.org/2000/svg" xmlns:xlink="http://www.w3.org/1999/xlink" x="0px" y="0px"
	 viewBox="0 0 32 32" style="enable-background:new 0 0 32 32;" xml:space="preserve">
<style type="text/css">
	.st0{display:none;fill-rule:evenodd;clip-rule:evenodd;fill:#51AF95;}
	.st1{fill:#51AF95;}
	.st2{fill-rule:evenodd;clip-rule:evenodd;fill:#FFFFFF;}
	.st3{font-family:'Arial-BoldMT';}
	.st4{font-size:4px;}
</style>
<path class="st0" d="M5.9,2.3L0,14.8C0,14.9,0,15,0.1,15.1l15.8,15.4c0.1,0.1,0.2,0.1,0.3,0l15.8-15.4c0.1-0.1,0.1-0.2,0-0.3
	L26.1,2.3c0-0.1-0.1-0.1-0.2-0.1H6.1C6,2.1,5.9,2.2,5.9,2.3L5.9,2.3L5.9,2.3z"/>
<g id="Layer_2">
	<circle class="st1" cx="16" cy="16" r="15.8"/>
</g>
<path class="st2" d="M18,17.1L18,17.1c-0.1,0-0.7,0-2,0c-1,0-1.8,0-2,0l0,0c-4-0.2-7-0.9-7-1.7s3-1.6,7-1.7v2.8c0.3,0,1,0.1,2.1,0.1
	c1.2,0,1.9,0,2-0.1v-2.8c4,0.2,7,0.9,7,1.7S22,16.9,18,17.1L18,17.1z M18,13.3v-2.5h5.6V7H8.4v3.8H14v2.5C9.4,13.5,6,14.4,6,15.5
	s3.4,2,7.9,2.2v8h4v-8c4.5-0.2,7.9-1.1,7.9-2.2S22.5,13.5,18,13.3L18,13.3L18,13.3z M18,13.3L18,13.3z"/>
<g id="Layer_3">
	<polygon class="st2" points="24.8,19.9 25.9,22.1 28.2,22.4 26.5,24.1 26.9,26.4 24.8,25.3 22.7,26.4 23.1,24.1 21.4,22.4 
		23.7,22.1 	"/>
</g>
<g id="Layer_4">
	<text transform="matrix(1 0 0 1 23.5118 24.98)" class="st1 st3 st4">S</text>
</g>
</svg>
